<svg version="1.1" id="Layer_1" xmlns="http://www.w3.org/2000/svg" xmlns:xlink="http://www.w3.org/1999/xlink" x="0px" y="0px"
	 width="100px" height="77px" viewBox="0 0 100 77" enable-background="new 0 0 100 77" xml:space="preserve">
<polygon points="84,0 16,0 0,55 100,55 "/>
<path d="M0,59v18h100V59H0z M66,72c-2.209,0-4-1.79-4-4s1.791-4,4-4s4,1.79,4,4S68.209,72,66,72z M78,72c-2.209,0-4-1.79-4-4
	s1.791-4,4-4s4,1.79,4,4S80.209,72,78,72z M90,72c-2.209,0-4-1.79-4-4s1.791-4,4-4s4,1.79,4,4S92.209,72,90,72z"/>
</svg>